<svg xmlns="http://www.w3.org/2000/svg" width="400" height="200" viewBox="0 0 400 200">
  <defs>
    <linearGradient id="bgGradient" x1="0%" y1="0%" x2="100%" y2="100%">
      <stop offset="0%" stop-color="#f8fafc" />
      <stop offset="100%" stop-color="#e2e8f0" />
    </linearGradient>
    <linearGradient id="iconGradient" x1="0%" y1="0%" x2="100%" y2="100%">
      <stop offset="0%" stop-color="#cbd5e1" />
      <stop offset="100%" stop-color="#94a3b8" />
    </linearGradient>
  </defs>
  <rect width="100%" height="100%" fill="url(#bgGradient)" />
  
  <g transform="translate(180, 80)">
    <path d="M4 16l4.586-4.586a2 2 0 012.828 0L16 16m-2-2l1.586-1.586a2 2 0 012.828 0L20 14m-6-6h.01M6 20h12a2 2 0 002-2V6a2 2 0 00-2-2H6a2 2 0 00-2 2v12a2 2 0 002 2z" 
          fill="none" 
          stroke="url(#iconGradient)" 
          stroke-width="2" 
          stroke-linecap="round" 
          stroke-linejoin="round" />
  </g>
  <text x="50%" y="65%" dominant-baseline="middle" text-anchor="middle" font-family="-apple-system, BlinkMacSystemFont, Segoe UI, Roboto, Helvetica, Arial, sans-serif" font-size="14" font-weight="500" fill="#64748b">No Image Available</text>
</svg>
